<?xml version="1.0" encoding="utf-8"?>
<svg id="master-artboard" viewBox="0 0 1400 980" version="1.0" xmlns="http://www.w3.org/2000/svg" x="0px" y="0px" width="1400px" height="980px" enable-background="new 0 0 1400 980">
<metadata>
	<sfw>
		<slices/>
		<slicesourcebounds height="980" y="-980" x="0" width="1400" bottomleftorigin="true"/>
	</sfw>
</metadata>
<path d="M 0 0 H 1400 V 980 H 0 V 0 Z" fill-rule="evenodd" clip-rule="evenodd" fill="#8BCBDF"/>





<g>
	<path fill="#B1DCE9" d="M1179.363,366.864h19.373c2.951,0,5.314-2.362,5.314-5.314c0-2.954-2.363-5.316-5.314-5.316h-19.373&#10;&#9;&#9;c-2.949,0-5.313,2.362-5.313,5.316C1174.05,364.502,1176.414,366.864,1179.363,366.864z"/>
	<path fill="#B1DCE9" d="M1044.717,364.03h92.365h0.354c0.236,0,0.59,0,0.826,0h0.826c0.354,0,0.708,0,1.062-0.118&#10;&#9;&#9;c7.797-0.59,14.767-4.134,20.081-9.331c5.787-5.789,9.449-13.939,9.449-22.797c0-8.859-3.662-16.89-9.449-22.678l-0.117-0.118&#10;&#9;&#9;c-5.787-5.788-13.819-9.448-22.678-9.448c-8.977,0-17.009,3.66-22.799,9.448c-5.904,5.906-9.449,13.937-9.449,22.796&#10;&#9;&#9;c0,2.126,0.236,4.252,0.594,6.26c0.351,2.008,1.063,4.016,1.771,5.906c1.062,2.716,4.252,4.134,6.966,2.952&#10;&#9;&#9;c2.719-1.062,4.017-4.252,2.955-6.968c-0.473-1.3-0.944-2.598-1.181-4.017c-0.235-1.3-0.472-2.716-0.472-4.134&#10;&#9;&#9;c0-5.907,2.479-11.339,6.376-15.237c3.898-3.898,9.213-6.258,15.239-6.258c5.904,0,11.337,2.36,15.234,6.258&#10;&#9;&#9;c3.898,3.898,6.263,9.331,6.263,15.237c0,6.024-2.364,11.338-6.263,15.237c-3.662,3.662-8.622,6.024-14.172,6.378h-93.781&#10;&#9;&#9;c-2.955,0-5.318,2.362-5.318,5.316C1039.398,361.668,1041.762,364.03,1044.717,364.03z"/>
	<path fill="#B1DCE9" d="M1209.955,398.638v-0.118c-5.195-5.199-12.166-8.623-19.959-9.215c-0.357-0.118-0.712-0.118-1.184-0.118&#10;&#9;&#9;h-72.284c-2.954,0-5.314,2.362-5.314,5.316c0,2.952,2.36,5.314,5.314,5.314h71.34c5.669,0.236,10.747,2.598,14.526,6.26&#10;&#9;&#9;c3.898,3.898,6.263,9.331,6.263,15.237c0,6.024-2.364,11.338-6.263,15.237c-3.894,3.896-9.33,6.378-15.234,6.378&#10;&#9;&#9;c-6.026,0-11.341-2.482-15.238-6.378c-3.895-3.898-6.259-9.213-6.259-15.237c0-1.418,0.118-2.834,0.354-4.134&#10;&#9;&#9;c0.235-1.3,0.707-2.716,1.18-4.017c1.066-2.716-0.236-5.786-2.95-6.851c-2.718-1.182-5.79,0.118-6.971,2.834&#10;&#9;&#9;c-0.708,2.008-1.298,3.898-1.77,6.024c-0.354,2.008-0.591,4.134-0.591,6.143c0,8.858,3.658,17.009,9.449,22.795&#10;&#9;&#9;c5.904,5.906,13.937,9.448,22.795,9.448s16.891-3.542,22.795-9.448c5.787-5.787,9.449-13.937,9.449-22.795&#10;&#9;&#9;C1219.404,412.457,1215.742,404.425,1209.955,398.638z"/>
	<path fill="#B1DCE9" d="M1084.285,383.637h-65.79c-2.954,0-5.318,2.362-5.318,5.314s2.364,5.316,5.318,5.316h65.79&#10;&#9;&#9;c2.949,0,5.432-2.364,5.432-5.316S1087.234,383.637,1084.285,383.637z"/>
</g>
<g>
	<path fill="#FFFFFF" d="M434.066,234.93h-23.717c-4.114-9.417-13.509-16.063-24.471-16.063c-4.963,0-9.687,1.418-13.703,3.78&#10;&#9;&#9;c-8.504-17.127-26.104-28.938-46.537-28.938c-28.702,0-51.851,23.268-51.851,51.852h85.395h28.348h25.042h21.495&#10;&#9;&#9;c2.954,0,5.435-2.362,5.435-5.314C439.501,237.292,437.021,234.93,434.066,234.93z"/>
	<path fill="#FFFFFF" d="M471.391,234.93h-17.007c-2.955,0-5.316,2.362-5.316,5.316c0,2.952,2.362,5.314,5.316,5.314h17.007&#10;&#9;&#9;c2.954,0,5.316-2.362,5.316-5.314C476.707,237.292,474.345,234.93,471.391,234.93z"/>
</g>
<g>
	<path fill="#FFFFFF" d="M943.139,106.893c-27.642,0-51.499,15.945-62.957,39.215c-5.433-3.306-11.809-5.197-18.543-5.197&#10;&#9;&#9;c-16.26,0-30.011,10.74-34.551,25.512h-25.807c-2.951,0-5.314,2.362-5.314,5.316c0,2.952,2.363,5.314,5.314,5.314h24.215h22.441&#10;&#9;&#9;h49.725h115.637C1013.299,138.313,981.877,106.893,943.139,106.893z"/>
	<path fill="#FFFFFF" d="M780.968,166.423h-17.009c-2.955,0-5.314,2.362-5.314,5.316c0,2.952,2.359,5.314,5.314,5.314h17.009&#10;&#9;&#9;c2.954,0,5.314-2.362,5.314-5.314C786.282,168.785,783.922,166.423,780.968,166.423z"/>
</g>
<g>
	<path fill-rule="evenodd" clip-rule="evenodd" fill="#FFFFFF" d="M510.015,523.366c30.355,0,54.923,24.569,54.923,54.926&#10;&#9;&#9;c0,30.353-24.567,55.04-54.923,55.04s-55.041-24.688-55.041-55.04C454.974,547.936,479.659,523.366,510.015,523.366&#10;&#9;&#9;L510.015,523.366z"/>
	<path fill-rule="evenodd" clip-rule="evenodd" fill="#FFFFFF" d="M828.096,523.366c30.353,0,54.922,24.569,54.922,54.926&#10;&#9;&#9;c0,30.353-24.569,55.04-54.922,55.04c-30.355,0-55.043-24.688-55.043-55.04C773.053,547.936,797.74,523.366,828.096,523.366&#10;&#9;&#9;L828.096,523.366z"/>
	<path fill-rule="evenodd" clip-rule="evenodd" fill="#DCDCDD" d="M510.015,559.745c-12.993,0-23.624,10.515-23.624,23.507&#10;&#9;&#9;c0,12.993,10.63,23.622,23.624,23.622c12.993,0,23.505-10.629,23.505-23.622C533.52,570.26,523.007,559.745,510.015,559.745&#10;&#9;&#9;L510.015,559.745z"/>
	<path fill-rule="evenodd" clip-rule="evenodd" fill="#333134" d="M442.099,543.565c-4.488,9.803-7.204,20.432-8.032,31.654h-25.63&#10;&#9;&#9;c-4.134,0-8.032-1.656-10.866-4.37l-0.236-0.354c-2.836-2.837-4.606-6.735-4.606-11.105s1.77-8.269,4.606-11.101&#10;&#9;&#9;c2.834-2.954,6.732-4.725,11.103-4.725h8.031H442.099z M896.482,543.565h24.097c4.249,0,8.028,1.652,10.865,4.37l0.354,0.236&#10;&#9;&#9;c2.837,2.95,4.606,6.849,4.606,11.219c0,4.252-1.652,8.15-4.37,10.869l-0.236,0.354c-2.954,2.832-6.849,4.606-11.219,4.606h-16.064&#10;&#9;&#9;C903.807,563.997,900.971,553.368,896.482,543.565L896.482,543.565z M758.763,543.565c-3.898,10.157-6.381,21.14-7.089,32.716&#10;&#9;&#9;H586.317c-0.71-11.576-3.19-22.559-7.088-32.716h37.916h78.072c2.952,0,5.435-2.836,5.435-6.38h11.101&#10;&#9;&#9;c0,3.544,2.482,6.38,5.55,6.38H758.763z"/>
	<path fill-rule="evenodd" clip-rule="evenodd" fill="#DCDCDD" d="M827.975,559.272c-12.989,0-23.504,10.633-23.504,23.626&#10;&#9;&#9;c0,12.988,10.515,23.504,23.504,23.504c13.11,0,23.625-10.516,23.625-23.504C851.6,569.905,841.085,559.272,827.975,559.272&#10;&#9;&#9;L827.975,559.272z"/>
	<path fill-rule="evenodd" clip-rule="evenodd" fill="#29282A" d="M436.548,559.391c-1.182,5.078-2.126,10.396-2.482,15.829h-25.63&#10;&#9;&#9;c-4.134,0-8.032-1.656-10.866-4.37l-0.236-0.354c-2.836-2.837-4.606-6.735-4.606-11.105H436.548z M583.953,559.391h170.085&#10;&#9;&#9;c-1.18,5.433-2.01,11.105-2.364,16.891H586.317C585.961,570.496,585.135,564.823,583.953,559.391L583.953,559.391z&#10;&#9;&#9; M902.032,559.391h34.372c0,4.252-1.652,8.15-4.37,10.869l-0.236,0.354c-2.954,2.832-6.849,4.606-11.219,4.606h-16.064&#10;&#9;&#9;C904.16,569.787,903.334,564.469,902.032,559.391L902.032,559.391z"/>
	<path fill="#1E1E21" d="M860.34,540.611c2.242,1.889,5.551,1.652,7.438-0.59c2.011-2.246,1.656-5.668-0.59-7.561&#10;&#9;&#9;c-5.314-4.606-11.573-8.269-18.308-10.746c-6.494-2.365-13.464-3.663-20.785-3.663c-16.654,0-31.775,6.73-42.64,17.6h-0.118&#10;&#9;&#9;c-10.869,10.982-17.599,25.985-17.599,42.641c0,16.651,6.729,31.772,17.717,42.637l0.235,0.354&#10;&#9;&#9;c10.983,10.75,25.868,17.363,42.404,17.363c13.819,0,26.576-4.725,36.732-12.521c10.393-8.028,18.071-19.369,21.615-32.48&#10;&#9;&#9;c0.708-2.836-1.062-5.668-3.898-6.498c-2.836-0.708-5.668,0.948-6.498,3.78c-2.832,10.751-9.213,20.199-17.717,26.694&#10;&#9;&#9;c-8.383,6.498-18.897,10.278-30.234,10.278c-13.586,0-25.867-5.433-34.844-14.173l-0.235-0.358&#10;&#9;&#9;c-8.977-8.977-14.531-21.375-14.531-35.076c0-13.705,5.437-26.104,14.413-35.08c8.977-8.981,21.493-14.531,35.197-14.531&#10;&#9;&#9;c6.023,0,11.809,1.066,17.123,3.072C850.773,533.759,855.852,536.831,860.34,540.611L860.34,540.611z M877.703,576.4&#10;&#9;&#9;c0.118,2.953,2.479,5.195,5.432,5.078c2.955-0.118,5.314-2.597,5.197-5.433c-0.236-5.196-1.063-10.274-2.479-14.999&#10;&#9;&#9;c-1.42-4.842-3.544-9.57-6.145-13.823c-1.534-2.478-4.725-3.304-7.32-1.77c-2.482,1.416-3.309,4.724-1.774,7.324&#10;&#9;&#9;c2.128,3.427,3.78,7.32,4.961,11.337C876.759,568.014,877.467,572.147,877.703,576.4L877.703,576.4z"/>
	<path fill-rule="evenodd" clip-rule="evenodd" fill="#1E1E21" d="M828.096,554.784c-12.992,0-23.625,10.515-23.625,23.508&#10;&#9;&#9;c0,12.989,10.633,23.622,23.625,23.622c12.989,0,23.504-10.633,23.504-23.622C851.6,565.299,841.085,554.784,828.096,554.784&#10;&#9;&#9;L828.096,554.784z"/>
	<path fill="#1E1E21" d="M469.856,607.582c-1.772-2.36-5.08-2.832-7.442-1.18c-2.362,1.77-2.834,5.078-1.18,7.441&#10;&#9;&#9;c5.668,7.675,12.993,13.938,21.495,18.308c8.15,4.135,17.481,6.495,27.286,6.495c16.653,0,31.653-6.73,42.638-17.718&#10;&#9;&#9;c10.867-10.864,17.599-25.985,17.599-42.637c0-16.655-6.732-31.658-17.599-42.641c-10.985-10.869-25.985-17.6-42.638-17.6&#10;&#9;&#9;c-16.655,0-31.774,6.73-42.639,17.6h-0.118c-10.868,10.982-17.599,25.985-17.599,42.641c0,2.714,0.236,5.55,0.59,8.265&#10;&#9;&#9;c0.354,2.718,0.944,5.437,1.652,8.032c0.828,2.837,3.78,4.488,6.616,3.78c2.834-0.826,4.488-3.78,3.66-6.612&#10;&#9;&#9;c-0.59-2.128-1.062-4.37-1.418-6.616c-0.236-2.124-0.354-4.488-0.354-6.849c0-13.705,5.434-26.104,14.411-35.08&#10;&#9;&#9;c8.977-8.981,21.497-14.531,35.198-14.531c13.701,0,26.104,5.55,35.08,14.531c8.977,8.977,14.526,21.375,14.526,35.08&#10;&#9;&#9;c0,13.701-5.55,26.1-14.526,35.076s-21.379,14.531-35.08,14.531c-8.15,0-15.709-1.893-22.441-5.314&#10;&#9;&#9;C480.487,619.041,474.463,613.844,469.856,607.582L469.856,607.582z"/>
	<path fill-rule="evenodd" clip-rule="evenodd" fill="#1E1E21" d="M510.015,554.784c-12.993,0-23.624,10.515-23.624,23.508&#10;&#9;&#9;c0,12.989,10.63,23.622,23.624,23.622c12.993,0,23.505-10.633,23.505-23.622C533.52,565.299,523.007,554.784,510.015,554.784&#10;&#9;&#9;L510.015,554.784z"/>
	<path fill="#1E1E21" d="M765.611,545.808c2.953,0,5.318-2.36,5.318-5.314s-2.365-5.313-5.318-5.313h-49.489&#10;&#9;&#9;c-2.954,0-5.314,2.359-5.314,5.313s2.36,5.314,5.314,5.314H765.611z M613.01,332.73H503.754&#10;&#9;&#9;c-3.78-0.118-21.143-0.236-34.962,23.622c-13.11,22.68-56.813,113.627-56.931,113.863c-0.354,0.826-0.59,1.536-0.59,2.362v62.603&#10;&#9;&#9;h-1.536c-6.614,0-12.754,2.714-17.125,7.084c-4.371,4.37-7.207,10.396-7.207,17.127c0,6.734,2.836,12.757,7.207,17.127l0.354,0.354&#10;&#9;&#9;c4.37,4.252,10.274,6.853,16.771,6.853h27.167c2.952,0,5.433-2.482,5.433-5.433c0-12.639,3.426-24.569,9.566-34.727&#10;&#9;&#9;c0.118-0.235,0.238-0.354,0.356-0.594c2.716-4.606,6.022-8.741,9.802-12.517c12.285-12.285,29.174-19.846,47.955-19.846&#10;&#9;&#9;c18.661,0,35.552,7.561,47.834,19.846c3.78,3.775,7.088,7.91,9.922,12.517c0.118,0.24,0.118,0.358,0.236,0.476&#10;&#9;&#9;c6.143,10.157,9.687,22.088,9.687,34.845c0,2.95,2.362,5.433,5.314,5.433h171.974c2.954,0,5.432-2.482,5.432-5.433&#10;&#9;&#9;c0-2.954-2.478-5.318-5.432-5.318H588.205c-0.708-9.685-3.07-18.779-6.851-27.166h36.97h76.301c2.954,0,5.316-2.36,5.316-5.314&#10;&#9;&#9;s-2.362-5.313-5.316-5.313h-70.868V338.044v-19.253c0-8.621,3.426-16.417,8.977-22.206l0.356-0.236&#10;&#9;&#9;c5.668-5.668,13.583-9.331,22.323-9.331h227.487c8.74,0,16.655,3.662,22.441,9.331c5.668,5.788,9.33,13.701,9.33,22.441v17.717&#10;&#9;&#9;v0.12v0.118l0,0v0.118l0,0v0.118c0.118,2.834,2.482,4.96,5.314,4.96h40.398c2.95,0,5.433-2.362,5.433-5.314&#10;&#9;&#9;c0-2.954-2.482-5.316-5.433-5.316h-35.08v-12.521c0-11.693-4.725-22.323-12.403-30c-7.678-7.679-18.307-12.403-30.001-12.403&#10;&#9;&#9;H655.413c-11.693,0-22.205,4.724-29.883,12.403l-0.354,0.354c-7.44,7.676-12.165,18.071-12.165,29.646V332.73z M422.02,535.18&#10;&#9;&#9;v-61.42c4.96-10.277,43.938-91.304,55.985-112.091c10.749-18.427,22.915-18.31,25.631-18.31l109.374,0.118V535.18h-37.68&#10;&#9;&#9;c-2.834-4.488-6.258-8.505-9.92-12.285l0,0c-14.173-14.173-33.78-22.914-55.395-22.914s-41.223,8.741-55.396,22.914h-0.118&#10;&#9;&#9;c-3.662,3.78-6.97,7.797-9.922,12.285H422.02z M438.673,545.808c-3.896,8.387-6.259,17.481-6.851,27.166h-22.087&#10;&#9;&#9;c-3.66,0-6.968-1.416-9.331-3.78l-0.236-0.236c-2.48-2.478-4.016-5.786-4.016-9.566s1.536-7.084,4.016-9.566&#10;&#9;&#9;c2.362-2.482,5.789-4.017,9.566-4.017h6.85H438.673z M992.273,550.887c-2.954,0-5.433,2.481-5.433,5.432&#10;&#9;&#9;c0,2.954,2.479,5.318,5.433,5.318h25.867c2.95,0,5.314-2.364,5.314-5.318c0-2.95-2.364-5.432-5.314-5.432H992.273z&#10;&#9;&#9; M943.375,550.887c-0.236,0-0.473,0-0.595,0.117c-1.298-3.304-3.186-6.258-5.668-8.74l-0.354-0.354&#10;&#9;&#9;c-3.072-2.951-7.084-5.197-11.454-6.141v-6.734h59.409c2.954,0,5.314-2.479,5.314-5.433c0-2.837-2.36-5.314-5.314-5.314h-64.728&#10;&#9;&#9;c-2.95,0-5.314,2.478-5.314,5.314v0.59v0.472v10.516h-24.093c-2.955,0-5.437,2.359-5.437,5.313s2.481,5.314,5.437,5.314h29.407&#10;&#9;&#9;c3.662,0,6.971,1.416,9.335,3.78l0.235,0.236c2.479,2.482,4.013,5.786,4.013,9.566c0,3.662-1.416,6.971-3.776,9.331l-0.236,0.235&#10;&#9;&#9;c-2.481,2.482-5.908,4.017-9.57,4.017h-18.897c-2.954,0-5.314,2.364-5.314,5.318c0,2.95,2.36,5.433,5.314,5.433h18.897&#10;&#9;&#9;c6.616,0,12.757-2.836,17.127-7.207l0.354-0.354c3.662-3.78,6.144-8.977,6.734-14.527h22.677c2.954,0,5.314-2.364,5.314-5.318&#10;&#9;&#9;c0-2.95-2.36-5.432-5.314-5.432H943.375z M992.273,493.954c-2.954,0-5.433,2.364-5.433,5.319c0,2.949,2.479,5.432,5.433,5.432&#10;&#9;&#9;h25.867c2.95,0,5.314-2.482,5.314-5.432c0-2.955-2.364-5.319-5.314-5.319H992.273z M914.671,498.919v0.354&#10;&#9;&#9;c0,2.949,2.364,5.432,5.314,5.432h46.893c2.954,0,5.314-2.482,5.314-5.432c0-2.955-2.36-5.319-5.314-5.319h-41.574v-21.967h59.409&#10;&#9;&#9;c2.954,0,5.314-2.362,5.314-5.316c0-2.952-2.36-5.314-5.314-5.314h-64.728c-2.832,0-5.196,2.244-5.314,4.96v0.118l0,0v0.118l0,0&#10;&#9;&#9;v0.118v0.118v31.654V498.919z M1000.896,411.511c-2.955,0-5.438,2.362-5.438,5.316c0,2.953,2.482,5.314,5.438,5.314h20.194&#10;&#9;&#9;c2.954,0,5.318-2.362,5.318-5.314c0-2.954-2.364-5.316-5.318-5.316H1000.896z M914.671,439.977v0.236&#10;&#9;&#9;c0,2.954,2.364,5.435,5.314,5.435h98.155c2.95,0,5.314-2.48,5.314-5.435c0-2.952-2.364-5.314-5.314-5.314h-92.837v-29.766h49.37&#10;&#9;&#9;c2.951,0,5.433-2.362,5.433-5.314s-2.481-5.314-5.433-5.314h-49.37v-23.033h27.756c2.954,0,5.313-2.362,5.313-5.314&#10;&#9;&#9;s-2.359-5.435-5.313-5.435h-33.074c-2.832,0-5.196,2.244-5.314,5.081l0,0v0.118v0.118l0,0v0.118l0,0v33.662v39.923V439.977&#10;&#9;&#9;L914.671,439.977z M983.65,331.312c-2.953,0-5.432,2.362-5.432,5.316c0,2.953,2.479,5.314,5.432,5.314h20.195&#10;&#9;&#9;c2.955,0,5.318-2.362,5.318-5.314c0-2.954-2.363-5.316-5.318-5.316H983.65z"/>
	<path fill="#1E1E21" d="M576.63,437.497c0-2.953-2.362-5.433-5.314-5.433c-2.954,0-5.434,2.48-5.434,5.433v15.709&#10;&#9;&#9;c0,2.954,2.48,5.434,5.434,5.434h27.992c2.954,0,5.316-2.48,5.316-5.434v-94.254c0-2.954-2.362-5.316-5.316-5.316h-27.992&#10;&#9;&#9;c-2.954,0-5.434,2.362-5.434,5.316v35.789c0,2.952,2.48,5.314,5.434,5.314c2.952,0,5.314-2.362,5.314-5.314v-30.474h17.363v83.625&#10;&#9;&#9;H576.63V437.497z M576.63,411.275c0-2.952-2.362-5.314-5.314-5.314c-2.954,0-5.434,2.362-5.434,5.314v10.277&#10;&#9;&#9;c0,2.952,2.48,5.433,5.434,5.433c2.952,0,5.314-2.48,5.314-5.433V411.275z"/>
	<path fill="#1E1E21" d="M555.133,424.622c0-2.952-2.362-5.314-5.314-5.314s-5.316,2.362-5.316,5.314v23.27H456.51l6.85-14.647&#10;&#9;&#9;c11.103-23.386,23.031-48.664,35.198-68.979h45.945v39.922c0,2.952,2.364,5.314,5.316,5.314s5.314-2.362,5.314-5.314v-45.237&#10;&#9;&#9;c0-2.954-2.362-5.316-5.314-5.316H497.14c-1.772,0-3.544,0.946-4.488,2.48c-13.229,21.262-27.283,47.955-38.86,72.641&#10;&#9;&#9;c-3.661,7.561-7.086,14.883-10.393,21.851c-0.474,0.708-0.71,1.654-0.71,2.599c0,2.954,2.362,5.434,5.316,5.434h101.814&#10;&#9;&#9;c2.952,0,5.314-2.48,5.314-5.434V424.622z"/>
	<path fill="#1E1E21" d="M895.773,578.292c0,2.95,2.36,5.433,5.314,5.433c2.955,0,5.314-2.482,5.314-5.433&#10;&#9;&#9;c0-21.615-8.74-41.225-22.913-55.397l0,0c-14.173-14.173-33.782-22.914-55.394-22.914c-21.615,0-41.224,8.741-55.396,22.914h-0.118&#10;&#9;&#9;c-14.173,14.173-22.913,33.782-22.913,55.397c0,2.95,2.36,5.433,5.314,5.433s5.432-2.482,5.432-5.433&#10;&#9;&#9;c0-18.665,7.561-35.557,19.728-47.837c12.28-12.285,29.172-19.846,47.954-19.846c18.662,0,35.553,7.561,47.833,19.846&#10;&#9;&#9;C888.214,542.735,895.773,559.627,895.773,578.292L895.773,578.292z"/>
	<path fill="#1E1E21" d="M965.58,643.725c2.95,0,5.314-2.36,5.314-5.314s-2.364-5.433-5.314-5.433H760.414&#10;&#9;&#9;c-2.949,0-5.432,2.479-5.432,5.433s2.482,5.314,5.432,5.314H965.58z"/>
	<path fill="#1E1E21" d="M730.413,643.725c2.954,0,5.318-2.36,5.318-5.314s-2.364-5.433-5.318-5.433H428.634&#10;&#9;&#9;c-2.952,0-5.432,2.479-5.432,5.433s2.48,5.314,5.432,5.314H730.413z"/>
	<path fill="#1E1E21" d="M398.632,643.725c2.954,0,5.316-2.36,5.316-5.314s-2.362-5.433-5.316-5.433h-19.605&#10;&#9;&#9;c-2.954,0-5.435,2.479-5.435,5.433s2.48,5.314,5.435,5.314H398.632z"/>
	<path fill="#1E1E21" d="M422.02,496.791h22.795v14.408H422.02V496.791z M450.249,486.042h-33.664c-2.952,0-5.314,2.362-5.314,5.316&#10;&#9;&#9;v25.155c0,2.954,2.362,5.318,5.314,5.318h33.664c2.952,0,5.314-2.364,5.314-5.318v-25.155&#10;&#9;&#9;C455.563,488.404,453.201,486.042,450.249,486.042L450.249,486.042z"/>
	<path fill="#1E1E21" d="M579.7,493.601c0,2.954,2.364,5.318,5.316,5.318s5.314-2.364,5.314-5.318v-11.693&#10;&#9;&#9;c0-2.952-2.362-5.314-5.314-5.314h-19.135c-2.952,0-5.314,2.362-5.314,5.314c0,2.954,2.362,5.316,5.314,5.316H579.7V493.601z&#10;&#9;&#9; M548.165,487.224c2.955,0,5.314-2.362,5.314-5.316c0-2.952-2.36-5.314-5.314-5.314h-10.63c-2.952,0-5.314,2.362-5.314,5.314&#10;&#9;&#9;c0,2.954,2.362,5.316,5.314,5.316H548.165z"/>
	<path fill-rule="evenodd" clip-rule="evenodd" fill="#16A3CB" d="M544.502,364.266v39.922c0,2.952,2.364,5.314,5.316,5.314v9.805&#10;&#9;&#9;c-2.952,0-5.316,2.362-5.316,5.314v23.27H456.51l6.85-14.647c11.103-23.386,23.031-48.664,35.198-68.979H544.502z"/>
	<path fill-rule="evenodd" clip-rule="evenodd" fill="#B1DCE9" d="M462.888,434.427l0.472-1.182&#10;&#9;&#9;c11.103-23.386,23.031-48.664,35.198-68.979h32.126v57.758c0,6.85-5.668,12.403-12.521,12.403H462.888z"/>
	<path fill-rule="evenodd" clip-rule="evenodd" fill="#F5B21A" d="M448.005,458.64h101.814c2.952,0,5.314-2.48,5.314-5.434v-28.584&#10;&#9;&#9;c0-2.952-2.362-5.314-5.314-5.314v-9.805c2.952,0,5.314-2.362,5.314-5.314v-45.237c0-2.954-2.362-5.316-5.314-5.316H497.14&#10;&#9;&#9;c-1.772,0-3.544,0.946-4.488,2.48c-13.229,21.262-27.283,47.955-38.86,72.641l-10.393,21.851c-0.474,0.708-0.71,1.654-0.71,2.599&#10;&#9;&#9;C442.688,456.16,445.051,458.64,448.005,458.64L448.005,458.64z M565.882,394.74c0,2.952,2.48,5.314,5.434,5.314v5.907&#10;&#9;&#9;c-2.954,0-5.434,2.362-5.434,5.314v10.277c0,2.952,2.48,5.433,5.434,5.433v5.08c-2.954,0-5.434,2.48-5.434,5.433v15.709&#10;&#9;&#9;c0,2.954,2.48,5.434,5.434,5.434h27.992c2.954,0,5.316-2.48,5.316-5.434v-94.254c0-2.954-2.362-5.316-5.316-5.316h-27.992&#10;&#9;&#9;c-2.954,0-5.434,2.362-5.434,5.316V394.74z M565.41,522.895L565.41,522.895z M454.619,522.895L454.619,522.895z M613.01,343.477&#10;&#9;&#9;V535.18h-37.68c-2.834-4.488-6.258-8.505-9.92-12.285c-14.173-14.173-33.78-22.914-55.395-22.914s-41.223,8.741-55.513,22.914&#10;&#9;&#9;c-3.662,3.78-6.97,7.797-9.922,12.285h-22.56v-13.348h28.229c2.952,0,5.314-2.364,5.314-5.318v-25.155&#10;&#9;&#9;c0-2.954-2.362-5.316-5.314-5.316H422.02v-12.283c4.96-10.277,43.938-91.304,55.985-112.091&#10;&#9;&#9;c10.749-18.427,22.915-18.31,25.631-18.31L613.01,343.477z M579.7,493.601c0,2.954,2.364,5.318,5.316,5.318&#10;&#9;&#9;s5.314-2.364,5.314-5.318v-11.693c0-2.952-2.362-5.314-5.314-5.314h-19.135c-2.952,0-5.314,2.362-5.314,5.314&#10;&#9;&#9;c0,2.954,2.362,5.316,5.314,5.316H579.7V493.601z M532.22,481.908c0,2.954,2.362,5.316,5.314,5.316h10.63&#10;&#9;&#9;c2.955,0,5.314-2.362,5.314-5.316c0-2.952-2.36-5.314-5.314-5.314h-10.63C534.582,476.593,532.22,478.956,532.22,481.908&#10;&#9;&#9;L532.22,481.908z"/>
	<path fill-rule="evenodd" clip-rule="evenodd" fill="#ED9522" d="M455.563,500.57h44.175c3.426-0.472,6.732-0.59,10.276-0.59&#10;&#9;&#9;c3.424,0,6.851,0.118,10.158,0.59h92.837v-18.663h-22.679v11.693c0,2.954-2.362,5.318-5.314,5.318s-5.316-2.364-5.316-5.318v-6.376&#10;&#9;&#9;h-13.818c-2.952,0-5.314-2.362-5.314-5.316h-7.088c0,2.954-2.36,5.316-5.314,5.316h-10.63c-2.952,0-5.314-2.362-5.314-5.316h-110.2&#10;&#9;&#9;v4.134h28.229c2.952,0,5.314,2.362,5.314,5.316V500.57z"/>
	<path fill-rule="evenodd" clip-rule="evenodd" fill="#D97627" d="M455.563,500.57h44.175&#10;&#9;&#9;c-17.481,2.242-33.308,10.394-45.237,22.324c-3.662,3.78-6.97,7.797-9.922,12.285h-22.56v-13.348h28.229&#10;&#9;&#9;c2.952,0,5.314-2.364,5.314-5.318V500.57z M520.173,500.57h92.837v34.609h-37.68c-2.834-4.488-6.258-8.505-9.92-12.285&#10;&#9;&#9;C553.479,510.964,537.652,502.813,520.173,500.57L520.173,500.57z M565.41,522.895L565.41,522.895z M454.619,522.895&#10;&#9;&#9;L454.619,522.895z"/>
	<path fill-rule="evenodd" clip-rule="evenodd" fill="#16A3CB" d="M576.63,394.74v-30.474h17.363v83.625H576.63v-10.395&#10;&#9;&#9;c0-2.953-2.362-5.433-5.314-5.433v-5.08c2.952,0,5.314-2.48,5.314-5.433v-10.277c0-2.952-2.362-5.314-5.314-5.314v-5.907&#10;&#9;&#9;C574.268,400.054,576.63,397.692,576.63,394.74L576.63,394.74z"/>
	<path fill-rule="evenodd" clip-rule="evenodd" fill="#B1DCE9" d="M576.63,394.74v-30.474h8.623v64.372&#10;&#9;&#9;c0,5.552-3.662,10.277-8.623,11.931v-3.072c0-2.953-2.362-5.433-5.314-5.433v-5.08c2.952,0,5.314-2.48,5.314-5.433v-10.277&#10;&#9;&#9;c0-2.952-2.362-5.314-5.314-5.314v-5.907C574.268,400.054,576.63,397.692,576.63,394.74L576.63,394.74z"/>
	<path fill-rule="evenodd" clip-rule="evenodd" fill="#DCDCDD" d="M883.489,522.895L883.489,522.895z M772.699,522.895&#10;&#9;&#9;L772.699,522.895z M699.941,540.493c0-2.954-2.362-5.313-5.316-5.313h-70.868V318.791c0-8.621,3.426-16.417,8.977-22.206&#10;&#9;&#9;l0.356-0.236c5.668-5.668,13.583-9.331,22.323-9.331h227.487c8.74,0,16.655,3.662,22.441,9.331&#10;&#9;&#9;c5.668,5.788,9.33,13.701,9.33,22.441v17.717v0.12v0.118l0,0v0.118l0,0v0.118c0.118,2.834,2.482,4.96,5.314,4.96v18.779&#10;&#9;&#9;c-2.832,0-5.196,2.244-5.314,5.081l0,0v0.118v0.118l0,0v0.118l0,0v33.662v39.923v0.236v0.236c0,2.954,2.364,5.435,5.314,5.435&#10;&#9;&#9;v15.709c-2.832,0-5.196,2.244-5.314,4.96v0.118l0,0v0.118l0,0v0.118v0.118v31.654v0.477v0.354c0,2.949,2.364,5.432,5.314,5.432&#10;&#9;&#9;v13.583c-2.95,0-5.314,2.478-5.314,5.314v0.59v0.472v10.516H893.41c-2.832-4.488-6.259-8.505-9.921-12.285&#10;&#9;&#9;c-14.173-14.173-33.782-22.914-55.394-22.914c-21.615,0-41.224,8.741-55.515,22.914c-3.662,3.78-6.97,7.797-9.921,12.285h-46.538&#10;&#9;&#9;c-2.954,0-5.314,2.359-5.314,5.313H699.941z"/>
	<path fill-rule="evenodd" clip-rule="evenodd" fill="#A9A4A4" d="M883.489,522.895L883.489,522.895z M919.985,504.705h59.177&#10;&#9;&#9;c3.663,0,6.73,2.954,6.73,6.73v0.118c0,3.78-3.067,6.734-6.73,6.734h-59.177c-2.95,0-5.314,2.478-5.314,5.314v0.59v0.472v10.516&#10;&#9;&#9;H893.41c-2.832-4.488-6.259-8.505-9.921-12.285c-11.931-11.931-27.755-20.082-45.236-22.324h76.536&#10;&#9;&#9;c0.59,2.361,2.6,4.017,5.078,4.135H919.985z M623.757,500.57h194.061c-17.48,2.242-33.306,10.394-45.236,22.324&#10;&#9;&#9;c-3.662,3.78-6.97,7.797-9.921,12.285h-46.538c-2.954,0-5.314,2.359-5.314,5.313h-10.866c0-2.954-2.362-5.313-5.316-5.313h-70.868&#10;&#9;&#9;V500.57z M772.699,522.895L772.699,522.895z"/>
	<path fill-rule="evenodd" clip-rule="evenodd" fill="#BBBBBB" d="M623.757,500.57h194.061c3.427-0.472,6.734-0.59,10.278-0.59&#10;&#9;&#9;c3.423,0,6.849,0.118,10.157,0.59h76.536c-0.118-0.354-0.118-0.825-0.118-1.297v-0.354v-0.477v-16.535H623.757V500.57z"/>
	<path fill="#FFFFFF" d="M902.269,389.78c0-2.955-2.36-5.435-5.314-5.435s-5.314,2.48-5.314,5.435v26.812&#10;&#9;&#9;c0,2.952,2.36,5.314,5.314,5.314s5.314-2.362,5.314-5.314V389.78z M825.614,299.302c-2.954,0-5.314,2.482-5.314,5.435&#10;&#9;&#9;s2.36,5.314,5.314,5.314h57.285c2.36,0,4.606,0.946,6.14,2.598c1.656,1.536,2.601,3.78,2.601,6.143v47.011&#10;&#9;&#9;c0,2.952,2.36,5.432,5.314,5.432s5.314-2.48,5.314-5.432v-47.011c0-5.314-2.124-10.157-5.551-13.583l-0.118-0.118&#10;&#9;&#9;c-3.544-3.542-8.386-5.788-13.7-5.788H825.614z"/>
	<path d="M 717.538025 308.988007 H 797.032028 V 388.833008 H 717.538025 V 308.988007 Z" fill-rule="evenodd" clip-rule="evenodd" fill="#38A895"/>
	<path fill="#1E1E21" d="M791.714,325.877c0,2.954,2.364,5.316,5.318,5.316c2.95,0,5.433-2.362,5.433-5.316v-16.889&#10;&#9;&#9;c0-2.952-2.482-5.316-5.433-5.316h-79.494c-2.95,0-5.314,2.364-5.314,5.316v79.845c0,2.952,2.364,5.435,5.314,5.435h79.494&#10;&#9;&#9;c2.95,0,5.433-2.482,5.433-5.435v-23.031c0-2.955-2.482-5.316-5.433-5.316c-2.954,0-5.318,2.362-5.318,5.316v17.717h-68.857&#10;&#9;&#9;v-69.099h68.857V325.877z M791.714,350.683c0,2.952,2.364,5.432,5.318,5.432c2.95,0,5.433-2.48,5.433-5.432v-9.566&#10;&#9;&#9;c0-2.955-2.482-5.435-5.433-5.435c-2.954,0-5.318,2.48-5.318,5.435V350.683z"/>
	<path d="M 726.5150146484375 372.06298828125 L 726.5150146484375 318.0830078125 L 780.3779907226562 318.0830078125 Z" fill-rule="evenodd" clip-rule="evenodd" fill="#66C0B6"/>
	<path fill="#FFFFFF" d="M748.488,328.596c2.949,0,5.314-2.362,5.314-5.316c0-2.952-2.365-5.314-5.314-5.314h-16.773&#10;&#9;&#9;c-2.954,0-5.314,2.362-5.314,5.314v15.947c0,2.952,2.36,5.432,5.314,5.432c2.95,0,5.433-2.48,5.433-5.432v-10.631H748.488z"/>
	<path d="M 764.784973 404.307007 H 844.274971 V 484.152008 H 764.784973 V 404.307007 Z" fill-rule="evenodd" clip-rule="evenodd" fill="#173F5D"/>
	<path fill="#1E1E21" d="M781.439,409.741c2.954,0,5.314-2.362,5.314-5.316c0-2.952-2.36-5.314-5.314-5.314h-16.891&#10;&#9;&#9;c-2.954,0-5.314,2.362-5.314,5.314v79.491c0,2.954,2.36,5.434,5.314,5.434h79.844c2.955,0,5.314-2.48,5.314-5.434v-79.491&#10;&#9;&#9;c0-2.952-2.359-5.314-5.314-5.314h-23.031c-2.953,0-5.313,2.362-5.313,5.314c0,2.954,2.36,5.316,5.313,5.316h17.718v68.86h-69.216&#10;&#9;&#9;v-68.86H781.439z M823.014,409.741c2.954,0,5.318-2.362,5.318-5.316c0-2.952-2.364-5.314-5.318-5.314h-26.457&#10;&#9;&#9;c-2.95,0-5.314,2.362-5.314,5.314c0,2.954,2.364,5.316,5.314,5.316H823.014z"/>
	<path d="M 773.7620239257812 467.26300048828125 L 773.7620239257812 413.2829895019531 L 827.5020141601562 413.2829895019531 Z" fill-rule="evenodd" clip-rule="evenodd" fill="#336288"/>
	<path fill="#FFFFFF" d="M795.612,423.914c2.954,0,5.314-2.48,5.314-5.433c0-2.954-2.36-5.316-5.314-5.316h-16.655&#10;&#9;&#9;c-2.949,0-5.432,2.362-5.432,5.316v16.063c0,2.953,2.482,5.314,5.432,5.314c2.955,0,5.318-2.362,5.318-5.314v-10.63H795.612z"/>
	<path d="M 667.695007 404.307007 H 747.185005 V 484.152008 H 667.695007 V 404.307007 Z" fill-rule="evenodd" clip-rule="evenodd" fill="#BA2026"/>
	<path fill="#1E1E21" d="M673.012,467.263c0-2.954-2.362-5.316-5.316-5.316c-2.952,0-5.314,2.362-5.314,5.316v16.889&#10;&#9;&#9;c0,2.954,2.362,5.316,5.314,5.316h79.49c2.954,0,5.314-2.362,5.314-5.316v-79.845c0-2.952-2.36-5.433-5.314-5.433h-79.49&#10;&#9;&#9;c-2.952,0-5.314,2.48-5.314,5.433v23.033c0,2.953,2.362,5.314,5.314,5.314c2.954,0,5.316-2.362,5.316-5.314v-17.719h68.859v69.099&#10;&#9;&#9;h-68.859V467.263z M673.012,425.686c0-2.954-2.362-5.316-5.316-5.316c-2.952,0-5.314,2.362-5.314,5.316v26.458&#10;&#9;&#9;c0,2.952,2.362,5.314,5.314,5.314c2.954,0,5.316-2.362,5.316-5.314V425.686z"/>
	<path d="M 676.6719970703125 467.26300048828125 L 676.6719970703125 413.2829895019531 L 730.531005859375 413.2829895019531 Z" fill-rule="evenodd" clip-rule="evenodd" fill="#D82329"/>
	<path fill="#FFFFFF" d="M715.768,423.914c-2.954,0-5.314-2.48-5.314-5.433c0-2.954,2.36-5.316,5.314-5.316h16.655&#10;&#9;&#9;c2.954,0,5.314,2.362,5.314,5.316v16.063c0,2.953-2.36,5.314-5.314,5.314s-5.314-2.362-5.314-5.314v-10.63H715.768z"/>
	<path fill-rule="evenodd" clip-rule="evenodd" fill="#DCDCDD" d="M917.035,341.942h26.693c5.078,0,9.331,4.134,9.331,9.331v0.236&#10;&#9;&#9;c0,5.078-4.253,9.212-9.331,9.212h-26.693c-5.082,0-9.33-4.134-9.33-9.212v-0.236C907.705,346.077,911.953,341.942,917.035,341.942&#10;&#9;&#9;L917.035,341.942z"/>
	<path fill-rule="evenodd" clip-rule="evenodd" fill="#DCDCDD" d="M897.662,445.647h56.577c4.252,0,7.796,3.424,7.796,7.676v0.236&#10;&#9;&#9;c0,4.252-3.544,7.797-7.796,7.797h-56.577c-4.252,0-7.797-3.544-7.797-7.797v-0.236&#10;&#9;&#9;C889.865,449.071,893.41,445.647,897.662,445.647L897.662,445.647z"/>
	<path fill-rule="evenodd" clip-rule="evenodd" fill="#DCDCDD" d="M558.441,567.659c-9.213-17.245-27.521-29.058-48.427-29.058&#10;&#9;&#9;c-21.025,0-39.214,11.813-48.545,29.058c2.126-9.448,6.851-17.835,13.347-24.447c8.977-8.981,21.497-14.531,35.198-14.531&#10;&#9;&#9;c13.701,0,26.104,5.55,35.08,14.531C551.709,549.824,556.433,558.211,558.441,567.659L558.441,567.659z"/>
	<path fill-rule="evenodd" clip-rule="evenodd" fill="#DCDCDD" d="M876.519,567.659c-9.33-17.245-27.519-29.058-48.544-29.058&#10;&#9;&#9;c-20.903,0-39.093,11.813-48.423,29.058c2.006-9.448,6.849-17.835,13.347-24.447c8.977-8.981,21.375-14.531,35.076-14.531&#10;&#9;&#9;c13.704,0,26.221,5.55,35.197,14.531C869.671,549.824,874.395,558.211,876.519,567.659L876.519,567.659z"/>
	<path d="M 422.019989 496.790985 H 444.814989 V 511.198985 H 422.019989 V 496.790985 Z" fill-rule="evenodd" clip-rule="evenodd" fill="#FFFFFF"/>
	<path fill="#F3F3F3" d="M499.266,373.243c1.063-2.244,3.663-3.188,5.907-2.126c2.126,1.064,3.07,3.78,2.008,5.907l-2.719,5.55&#10;&#9;&#9;c-1.062,2.244-3.66,3.19-5.904,2.126c-2.126-1.062-3.072-3.778-2.008-5.906L499.266,373.243z M490.762,390.724&#10;&#9;&#9;c1.063-2.244,3.662-3.19,5.906-2.126s3.07,3.78,2.008,5.906l-12.993,26.93c-1.064,2.126-3.662,3.07-5.906,2.008&#10;&#9;&#9;c-2.126-1.064-3.07-3.662-2.008-5.906L490.762,390.724z"/>
</g>
</svg>