<?xml version="1.0" standalone="no"?>
<!DOCTYPE svg PUBLIC "-//W3C//DTD SVG 20010904//EN"
 "http://www.w3.org/TR/2001/REC-SVG-20010904/DTD/svg10.dtd">
<svg version="1.0" xmlns="http://www.w3.org/2000/svg"
 width="304.000000pt" height="151.000000pt" viewBox="0 0 304.000000 151.000000"
 preserveAspectRatio="xMidYMid meet">
<metadata>
Created by potrace 1.15, written by Peter Selinger 2001-2017
</metadata>
<g transform="translate(0.000000,151.000000) scale(0.100000,-0.100000)"
fill="#000000" stroke="none">
<path d="M1075 1416 c-131 -32 -261 -147 -334 -296 -15 -30 -26 -63 -23 -72 2
-12 -3 -18 -13 -18 -10 0 -69 -51 -132 -114 l-114 -114 -91 -21 c-106 -26
-133 -38 -177 -83 -53 -53 -125 -237 -106 -269 4 -5 -5 -14 -19 -21 -25 -11
-26 -14 -26 -113 l0 -103 31 -6 c17 -3 62 -6 99 -6 62 0 68 -2 74 -22 5 -21
41 -65 80 -96 26 -21 75 -32 139 -32 86 0 150 38 188 112 l19 38 645 0 c642 0
644 0 650 -21 11 -32 65 -88 106 -110 52 -26 156 -26 208 0 41 22 95 78 106
110 6 20 13 21 251 21 l244 0 0 105 c0 87 3 105 15 105 13 0 15 64 15 520 l0
520 -892 -1 c-670 0 -905 -4 -943 -13z m1793 -508 l2 -478 -243 0 c-237 0
-244 1 -263 21 -77 87 -272 91 -363 9 l-32 -30 -435 0 -434 0 0 330 0 330
-160 0 c-115 0 -160 3 -160 12 0 44 142 198 218 237 99 50 86 50 1007 48 l860
-2 3 -477z m-1848 -213 l0 -305 -164 0 -164 0 -25 33 c-13 18 -49 46 -78 62
-47 26 -64 30 -134 30 -93 0 -142 -21 -203 -85 -32 -35 -43 -40 -81 -40 l-44
0 7 62 c4 42 18 87 44 137 52 105 89 131 223 159 l104 22 90 97 c126 135 122
133 288 133 l137 0 0 -305z m-502 -270 c49 -21 81 -52 103 -100 23 -49 24 -94
4 -143 -32 -75 -90 -115 -170 -115 -205 0 -252 289 -58 358 50 18 76 18 121 0z
m1727 -4 c74 -34 115 -95 115 -171 0 -50 -15 -88 -48 -123 -84 -89 -216 -79
-286 21 -24 34 -29 51 -29 99 0 89 41 150 120 178 52 19 81 18 128 -4z m-2050
-58 c-4 -10 -9 -44 -12 -76 l-6 -58 -46 3 -46 3 -3 59 c-4 83 -2 86 64 86 49
0 55 -2 49 -17z m825 -58 l0 -75 -144 0 -143 0 -6 53 c-4 28 -9 62 -13 75 l-6
22 156 0 156 0 0 -75z"/>
<path d="M785 941 c-44 -21 -82 -53 -175 -153 l-63 -68 186 0 187 0 0 120 0
120 -47 0 c-27 0 -66 -9 -88 -19z m115 -100 c0 -72 -3 -90 -16 -95 -25 -10
-252 -7 -258 3 -9 14 126 148 165 165 19 9 51 15 72 16 l37 0 0 -89z"/>
<path d="M384 326 c-27 -27 -34 -42 -34 -74 0 -76 74 -127 143 -99 46 20 67
52 67 103 0 35 -5 47 -35 73 -50 44 -95 43 -141 -3z m116 -6 c25 -13 41 -65
30 -94 -11 -29 -47 -56 -76 -56 -12 0 -33 9 -48 21 -33 26 -37 88 -6 119 21
21 69 26 100 10z"/>
<path d="M2134 350 c-57 -23 -83 -109 -48 -159 22 -31 75 -52 113 -45 33 7 76
48 84 82 20 83 -68 155 -149 122z m99 -37 c71 -80 -33 -193 -108 -118 -52 51
-18 135 55 135 22 0 43 -7 53 -17z"/>
</g>
</svg>
