<?xml version="1.0" standalone="no"?>
<!DOCTYPE svg PUBLIC "-//W3C//DTD SVG 20010904//EN"
 "http://www.w3.org/TR/2001/REC-SVG-20010904/DTD/svg10.dtd">
<svg version="1.0" xmlns="http://www.w3.org/2000/svg"
 width="439.000000pt" height="177.000000pt" viewBox="0 0 439.000000 177.000000"
 preserveAspectRatio="xMidYMid meet">
<metadata>
Created by potrace 1.15, written by Peter Selinger 2001-2017
</metadata>
<g transform="translate(0.000000,177.000000) scale(0.100000,-0.100000)"
fill="#000000" stroke="none">
<path d="M930 1670 c0 -18 -7 -20 -68 -20 -156 0 -343 -50 -519 -138 l-82 -42
-25 -77 c-13 -43 -54 -170 -90 -282 l-66 -203 0 -234 c0 -204 -2 -234 -15
-234 -13 0 -15 -17 -13 -112 l3 -113 197 -3 198 -2 19 -39 c25 -48 78 -95 127
-111 60 -20 157 -8 202 26 48 36 67 58 82 94 l12 30 873 0 873 0 6 -25 c10
-40 73 -102 122 -121 32 -12 62 -15 110 -11 83 6 138 41 174 110 l25 47 76 0
c73 0 77 -1 83 -25 10 -37 61 -90 111 -114 57 -27 144 -28 201 -2 41 19 114
100 114 127 0 12 51 14 280 14 l280 0 0 55 c0 30 5 55 10 55 7 0 10 235 10
685 l0 685 -1655 0 c-1648 0 -1655 0 -1655 -20z m3278 -662 l2 -638 -250 0
-250 0 -20 39 c-25 49 -80 104 -128 127 -59 29 -158 30 -220 4 -57 -25 -137
-103 -148 -144 -5 -22 -12 -26 -44 -26 -33 0 -39 4 -48 29 -16 45 -82 112
-137 137 -128 60 -277 12 -347 -113 l-30 -53 -809 0 -809 0 0 633 c0 349 3
637 7 640 3 4 731 6 1617 5 l1611 -3 3 -637z m-3320 80 l-3 -523 -155 -5
c-147 -5 -157 -6 -203 -33 -26 -15 -57 -41 -69 -57 l-22 -30 -158 0 -158 0 0
233 c0 176 4 244 14 278 8 24 47 144 86 267 l71 222 80 40 c145 74 338 126
472 129 l47 1 -2 -522z m-129 -646 c90 -45 126 -155 81 -247 -80 -166 -333
-122 -348 60 -2 30 -2 65 2 79 9 35 64 96 101 112 43 19 124 17 164 -4z m2168
7 c96 -36 139 -158 92 -257 -68 -140 -284 -130 -341 17 -14 38 -11 115 6 148
18 36 64 79 96 92 34 13 112 13 147 0z m596 -3 c130 -56 145 -244 25 -323 -59
-40 -147 -40 -206 0 -95 62 -111 198 -34 281 15 16 41 34 57 42 39 17 117 18
158 0z m-3107 -68 c-4 -13 -10 -42 -13 -65 l-6 -43 -153 0 -154 0 0 65 0 65
166 0 166 0 -6 -22z"/>
<path d="M316 1373 c-3 -10 -35 -112 -71 -227 -35 -115 -63 -211 -61 -213 2
-2 44 3 92 12 49 9 158 19 242 22 l152 6 -2 206 -3 206 -172 3 c-157 2 -172 1
-177 -15z m319 -198 l0 -170 -125 -7 c-112 -7 -180 -16 -262 -34 -20 -5 -28
-2 -28 7 0 8 27 96 61 197 l61 183 146 -3 147 -3 0 -170z"/>
<path d="M617 369 c-24 -14 -47 -62 -47 -98 0 -67 85 -119 146 -89 99 47 68
198 -40 198 -22 0 -49 -5 -59 -11z m114 -38 c33 -33 35 -50 14 -90 -16 -32
-33 -41 -76 -41 -35 0 -79 39 -79 69 0 81 85 118 141 62z"/>
<path d="M2779 351 c-81 -81 18 -219 120 -167 40 21 65 69 57 111 -16 83 -117
115 -177 56z m124 -11 c33 -26 41 -63 23 -99 -26 -49 -91 -57 -131 -16 -71 70
29 177 108 115z"/>
<path d="M3377 356 c-52 -48 -46 -124 12 -163 43 -29 69 -29 112 0 86 58 48
187 -56 187 -31 0 -49 -7 -68 -24z m107 -7 c52 -24 58 -104 11 -135 -72 -47
-157 18 -125 95 18 45 66 62 114 40z"/>
</g>
</svg>
