<?xml version="1.0" standalone="no"?>
<!DOCTYPE svg PUBLIC "-//W3C//DTD SVG 20010904//EN"
 "http://www.w3.org/TR/2001/REC-SVG-20010904/DTD/svg10.dtd">
<svg version="1.0" xmlns="http://www.w3.org/2000/svg"
 width="319.000000pt" height="189.000000pt" viewBox="0 0 319.000000 189.000000"
 preserveAspectRatio="xMidYMid meet">
<metadata>
Created by potrace 1.15, written by Peter Selinger 2001-2017
</metadata>
<g transform="translate(0.000000,189.000000) scale(0.100000,-0.100000)"
fill="#000000" stroke="none">
<path d="M350 1315 l0 -235 365 0 365 0 0 -25 0 -25 -275 0 c-151 0 -275 -3
-275 -7 0 -10 -29 -180 -35 -209 -4 -18 -24 -24 -189 -54 -213 -38 -188 -16
-206 -185 -17 -163 -18 -165 -45 -165 -31 0 -31 -1 2 -121 l28 -99 90 0 91 0
14 -36 c31 -78 152 -143 237 -128 75 13 153 73 175 135 l10 29 643 0 643 0 13
-31 c44 -109 169 -160 290 -120 48 15 110 76 129 126 l10 25 335 0 335 0 0
680 0 680 -1375 0 -1375 0 0 -235z m2701 -212 c0 -225 2 -469 5 -543 3 -74 3
-177 -1 -227 l-7 -93 -284 0 -284 0 -1 38 c-1 79 -60 174 -134 218 -36 21 -64
28 -119 32 -91 6 -157 -20 -217 -85 -46 -50 -64 -88 -74 -155 l-7 -48 -398 0
-397 0 -7 69 c-3 38 -3 234 1 435 l6 366 -369 2 -369 3 -3 185 c-1 101 0 190
2 197 4 11 262 13 1331 13 l1325 0 1 -407z m-2013 -400 l2 -303 -156 0 -157 0
-52 49 c-54 51 -124 81 -190 81 -66 0 -136 -30 -190 -81 -51 -48 -53 -49 -114
-49 l-63 0 6 28 c3 15 10 79 17 142 6 63 14 118 18 122 4 4 87 23 185 42 98
20 180 36 181 38 2 2 10 50 19 108 10 58 19 111 21 118 4 10 56 12 237 10
l233 -3 3 -302z m-472 -282 c23 -10 54 -36 70 -57 26 -33 29 -46 29 -109 0
-63 -3 -76 -29 -109 -75 -99 -227 -99 -302 0 -26 33 -29 46 -29 109 0 63 3 76
29 109 34 45 95 76 151 76 22 0 59 -9 81 -19z m1717 3 c41 -21 76 -52 92 -84
86 -171 -114 -343 -276 -236 -89 59 -104 197 -31 280 45 51 154 71 215 40z
m-2056 -58 c2 -1 -2 -18 -7 -37 -6 -18 -10 -47 -10 -62 0 -27 -1 -28 -47 -25
l-47 3 -13 54 c-20 78 -15 84 60 76 34 -4 63 -8 64 -9z m813 -62 l0 -64 -139
0 -138 0 -6 48 c-3 26 -9 55 -12 64 -6 16 6 18 137 20 78 2 146 2 151 0 4 -2
7 -32 7 -68z"/>
<path d="M615 960 c-9 -15 -44 -224 -38 -232 2 -5 89 -8 194 -8 l189 0 0 125
0 125 -169 0 c-103 0 -172 -4 -176 -10z m323 -117 l3 -93 -172 0 -171 0 6 33
c3 17 8 52 12 77 12 84 6 81 172 78 l147 -3 3 -92z"/>
<path d="M424 342 c-55 -44 -59 -109 -10 -158 26 -26 42 -34 71 -34 50 0 105
53 105 100 0 40 -26 85 -57 99 -35 16 -85 13 -109 -7z m124 -38 c29 -33 28
-69 -3 -99 -68 -69 -184 15 -129 93 33 48 92 50 132 6z"/>
<path d="M2138 331 c-28 -25 -33 -36 -33 -76 0 -40 5 -51 33 -76 91 -81 214
22 157 131 -31 59 -104 69 -157 21z m130 -23 c47 -45 11 -128 -54 -128 -48 0
-70 14 -83 51 -29 83 70 139 137 77z"/>
</g>
</svg>
