<svg xmlns="http://www.w3.org/2000/svg" viewBox="0 0 300 81" fill="currentColor" shape-rendering="crispEdges"><path d="M8 0h7v1h-7zM7 1h9v1h-9zM6 2h11v1h-11zM6 3h12v1h-12zM5 4h13v1h-13zM5 5h13v1h-13zM5 6h13v1h-13zM5 7h13v1h-13zM5 8h13v1h-13zM6 9h11v1h-11zM7 10h9v1h-9zM8 11h7v1h-7zM10 12h3v1h-3zM10 14h3v1h-3zM7 15h8v1h-8zM6 16h10v1h-10zM5 17h12v1h-12zM5 18h12v1h-12zM5 19h13v1h-13zM5 20h13v1h-13zM5 21h13v1h-13zM5 22h13v1h-13zM5 23h15v1h-15zM65 23h4v1h-4zM5 24h18v1h-18zM63 24h6v1h-6zM5 25h22v1h-22zM61 25h9v1h-9zM5 26h29v1h-29zM59 26h11v1h-11zM5 27h30v1h-30zM59 27h11v1h-11zM5 28h31v1h-31zM56 28h2v1h-2zM60 28h11v1h-11zM5 29h31v1h-31zM54 29h5v1h-5zM60 29h11v1h-11zM5 30h31v1h-31zM52 30h7v1h-7zM61 30h11v1h-11zM5 31h31v1h-31zM50 31h10v1h-10zM61 31h11v1h-11zM5 32h31v1h-31zM48 32h12v1h-12zM62 32h11v1h-11zM5 33h14v1h-14zM23 33h12v1h-12zM46 33h15v1h-15zM62 33h11v1h-11zM5 34h14v1h-14zM28 34h4v1h-4zM33 34h3v1h-3zM44 34h17v1h-17zM63 34h11v1h-11zM251 34h7v1h-7zM5 35h14v1h-14zM34 35h3v1h-3zM42 35h20v1h-20zM63 35h11v1h-11zM249 35h9v1h-9zM5 36h14v1h-14zM34 36h3v1h-3zM40 36h22v1h-22zM64 36h11v1h-11zM136 36h8v1h-8zM213 36h7v1h-7zM249 36h7v1h-7zM5 37h14v1h-14zM35 37h3v1h-3zM41 37h22v1h-22zM64 37h11v1h-11zM135 37h9v1h-9zM212 37h9v1h-9zM248 37h7v1h-7zM5 38h14v1h-14zM35 38h3v1h-3zM41 38h22v1h-22zM65 38h11v1h-11zM136 38h8v1h-8zM212 38h9v1h-9zM247 38h7v1h-7zM5 39h14v1h-14zM36 39h3v1h-3zM42 39h21v1h-21zM65 39h11v1h-11zM136 39h8v1h-8zM212 39h9v1h-9zM246 39h7v1h-7zM5 40h14v1h-14zM36 40h3v1h-3zM42 40h22v1h-22zM66 40h11v1h-11zM136 40h8v1h-8zM212 40h9v1h-9zM245 40h7v1h-7zM5 41h14v1h-14zM37 41h3v1h-3zM43 41h21v1h-21zM66 41h11v1h-11zM136 41h8v1h-8zM212 41h9v1h-9zM244 41h7v1h-7zM5 42h14v1h-14zM37 42h3v1h-3zM43 42h20v1h-20zM67 42h11v1h-11zM136 42h8v1h-8zM212 42h9v1h-9zM243 42h6v1h-6zM5 43h15v1h-15zM38 43h3v1h-3zM44 43h17v1h-17zM67 43h11v1h-11zM136 43h8v1h-8zM212 43h9v1h-9zM242 43h6v1h-6zM5 44h16v1h-16zM38 44h3v1h-3zM44 44h15v1h-15zM63 44h3v1h-3zM68 44h11v1h-11zM136 44h8v1h-8zM212 44h9v1h-9zM6 45h16v1h-16zM39 45h3v1h-3zM45 45h12v1h-12zM61 45h5v1h-5zM68 45h11v1h-11zM136 45h8v1h-8zM212 45h9v1h-9zM6 46h17v1h-17zM39 46h3v1h-3zM45 46h10v1h-10zM59 46h8v1h-8zM69 46h11v1h-11zM136 46h8v1h-8zM212 46h9v1h-9zM7 47h17v1h-17zM40 47h3v1h-3zM45 47h8v1h-8zM57 47h10v1h-10zM69 47h11v1h-11zM136 47h8v1h-8zM212 47h9v1h-9zM7 48h18v1h-18zM40 48h3v1h-3zM46 48h5v1h-5zM55 48h13v1h-13zM70 48h11v1h-11zM112 48h12v1h-12zM136 48h8v1h-8zM150 48h10v1h-10zM181 48h9v1h-9zM196 48h8v1h-8zM212 48h9v1h-9zM239 48h9v1h-9zM254 48h7v1h-7zM270 48h8v1h-8zM284 48h10v1h-10zM8 49h18v1h-18zM41 49h3v1h-3zM46 49h3v1h-3zM53 49h15v1h-15zM70 49h11v1h-11zM110 49h16v1h-16zM136 49h8v1h-8zM148 49h14v1h-14zM179 49h13v1h-13zM195 49h9v1h-9zM212 49h9v1h-9zM237 49h13v1h-13zM253 49h9v1h-9zM270 49h9v1h-9zM282 49h14v1h-14zM8 50h19v1h-19zM42 50h3v1h-3zM51 50h18v1h-18zM71 50h11v1h-11zM108 50h19v1h-19zM136 50h8v1h-8zM146 50h17v1h-17zM177 50h17v1h-17zM195 50h9v1h-9zM212 50h9v1h-9zM235 50h17v1h-17zM253 50h9v1h-9zM270 50h9v1h-9zM281 50h16v1h-16zM8 51h20v1h-20zM42 51h3v1h-3zM49 51h20v1h-20zM71 51h11v1h-11zM107 51h22v1h-22zM136 51h8v1h-8zM145 51h19v1h-19zM176 51h28v1h-28zM212 51h9v1h-9zM234 51h18v1h-18zM253 51h9v1h-9zM270 51h8v1h-8zM279 51h19v1h-19zM8 52h20v1h-20zM43 52h3v1h-3zM48 52h22v1h-22zM71 52h10v1h-10zM105 52h25v1h-25zM136 52h29v1h-29zM175 52h29v1h-29zM212 52h9v1h-9zM233 52h29v1h-29zM270 52h29v1h-29zM8 53h21v1h-21zM43 53h3v1h-3zM48 53h22v1h-22zM72 53h7v1h-7zM105 53h25v1h-25zM136 53h29v1h-29zM174 53h30v1h-30zM212 53h9v1h-9zM232 53h30v1h-30zM270 53h29v1h-29zM8 54h10v1h-10zM19 54h11v1h-11zM44 54h3v1h-3zM49 54h22v1h-22zM72 54h5v1h-5zM104 54h25v1h-25zM136 54h29v1h-29zM174 54h30v1h-30zM212 54h9v1h-9zM232 54h30v1h-30zM270 54h30v1h-30zM7 55h11v1h-11zM20 55h10v1h-10zM44 55h3v1h-3zM49 55h22v1h-22zM73 55h2v1h-2zM81 55h3v1h-3zM103 55h14v1h-14zM120 55h8v1h-8zM136 55h14v1h-14zM153 55h12v1h-12zM173 55h14v1h-14zM190 55h14v1h-14zM212 55h9v1h-9zM231 55h14v1h-14zM248 55h14v1h-14zM270 55h14v1h-14zM287 55h13v1h-13zM7 56h10v1h-10zM21 56h10v1h-10zM45 56h3v1h-3zM50 56h22v1h-22zM79 56h5v1h-5zM103 56h11v1h-11zM123 56h4v1h-4zM136 56h11v1h-11zM155 56h11v1h-11zM173 56h11v1h-11zM193 56h11v1h-11zM212 56h9v1h-9zM231 56h11v1h-11zM251 56h11v1h-11zM270 56h11v1h-11zM290 56h10v1h-10zM7 57h10v1h-10zM21 57h10v1h-10zM45 57h3v1h-3zM50 57h22v1h-22zM77 57h6v1h-6zM102 57h10v1h-10zM124 57h2v1h-2zM136 57h10v1h-10zM156 57h10v1h-10zM172 57h11v1h-11zM194 57h10v1h-10zM212 57h9v1h-9zM230 57h11v1h-11zM252 57h10v1h-10zM270 57h10v1h-10zM290 57h10v1h-10zM6 58h11v1h-11zM22 58h10v1h-10zM46 58h3v1h-3zM51 58h19v1h-19zM75 58h6v1h-6zM102 58h9v1h-9zM136 58h9v1h-9zM157 58h9v1h-9zM172 58h10v1h-10zM195 58h9v1h-9zM212 58h9v1h-9zM230 58h10v1h-10zM253 58h9v1h-9zM270 58h9v1h-9zM291 58h9v1h-9zM6 59h10v1h-10zM22 59h10v1h-10zM46 59h3v1h-3zM51 59h17v1h-17zM72 59h7v1h-7zM101 59h10v1h-10zM136 59h8v1h-8zM157 59h9v1h-9zM172 59h9v1h-9zM195 59h9v1h-9zM212 59h9v1h-9zM230 59h9v1h-9zM253 59h9v1h-9zM270 59h8v1h-8zM291 59h9v1h-9zM5 60h11v1h-11zM23 60h10v1h-10zM47 60h3v1h-3zM52 60h14v1h-14zM70 60h7v1h-7zM101 60h9v1h-9zM136 60h8v1h-8zM157 60h9v1h-9zM172 60h9v1h-9zM195 60h9v1h-9zM212 60h9v1h-9zM230 60h9v1h-9zM253 60h9v1h-9zM270 60h9v1h-9zM291 60h9v1h-9zM5 61h10v1h-10zM23 61h10v1h-10zM47 61h3v1h-3zM52 61h12v1h-12zM68 61h7v1h-7zM101 61h9v1h-9zM136 61h8v1h-8zM157 61h9v1h-9zM172 61h9v1h-9zM195 61h9v1h-9zM212 61h9v1h-9zM230 61h9v1h-9zM253 61h9v1h-9zM270 61h9v1h-9zM291 61h9v1h-9zM5 62h10v1h-10zM24 62h9v1h-9zM48 62h3v1h-3zM53 62h9v1h-9zM66 62h7v1h-7zM101 62h9v1h-9zM136 62h8v1h-8zM157 62h9v1h-9zM172 62h9v1h-9zM195 62h9v1h-9zM212 62h9v1h-9zM229 62h9v1h-9zM253 62h9v1h-9zM270 62h9v1h-9zM291 62h9v1h-9zM4 63h10v1h-10zM24 63h10v1h-10zM48 63h4v1h-4zM53 63h7v1h-7zM64 63h7v1h-7zM101 63h9v1h-9zM136 63h8v1h-8zM157 63h9v1h-9zM172 63h8v1h-8zM195 63h9v1h-9zM212 63h9v1h-9zM229 63h9v1h-9zM253 63h9v1h-9zM270 63h9v1h-9zM291 63h9v1h-9zM4 64h10v1h-10zM25 64h9v1h-9zM49 64h3v1h-3zM54 64h4v1h-4zM62 64h6v1h-6zM101 64h9v1h-9zM136 64h8v1h-8zM157 64h9v1h-9zM171 64h9v1h-9zM195 64h9v1h-9zM212 64h9v1h-9zM229 64h9v1h-9zM253 64h9v1h-9zM270 64h9v1h-9zM291 64h9v1h-9zM3 65h10v1h-10zM25 65h9v1h-9zM49 65h4v1h-4zM54 65h2v1h-2zM59 65h7v1h-7zM101 65h9v1h-9zM136 65h8v1h-8zM157 65h9v1h-9zM172 65h9v1h-9zM195 65h9v1h-9zM212 65h9v1h-9zM229 65h9v1h-9zM253 65h9v1h-9zM270 65h9v1h-9zM291 65h9v1h-9zM3 66h10v1h-10zM25 66h10v1h-10zM50 66h14v1h-14zM101 66h9v1h-9zM136 66h8v1h-8zM157 66h9v1h-9zM172 66h9v1h-9zM195 66h9v1h-9zM212 66h9v1h-9zM229 66h10v1h-10zM253 66h9v1h-9zM270 66h9v1h-9zM291 66h9v1h-9zM2 67h10v1h-10zM26 67h9v1h-9zM50 67h12v1h-12zM101 67h9v1h-9zM136 67h8v1h-8zM157 67h9v1h-9zM172 67h9v1h-9zM195 67h9v1h-9zM212 67h9v1h-9zM230 67h9v1h-9zM253 67h9v1h-9zM270 67h9v1h-9zM291 67h9v1h-9zM2 68h10v1h-10zM26 68h9v1h-9zM50 68h11v1h-11zM101 68h10v1h-10zM136 68h8v1h-8zM157 68h9v1h-9zM172 68h9v1h-9zM195 68h9v1h-9zM212 68h9v1h-9zM230 68h9v1h-9zM253 68h9v1h-9zM270 68h9v1h-9zM291 68h9v1h-9zM1 69h10v1h-10zM26 69h9v1h-9zM49 69h13v1h-13zM102 69h9v1h-9zM136 69h8v1h-8zM157 69h9v1h-9zM172 69h10v1h-10zM195 69h9v1h-9zM212 69h9v1h-9zM230 69h10v1h-10zM253 69h9v1h-9zM270 69h9v1h-9zM291 69h9v1h-9zM1 70h10v1h-10zM26 70h9v1h-9zM48 70h14v1h-14zM102 70h10v1h-10zM124 70h2v1h-2zM136 70h8v1h-8zM157 70h9v1h-9zM172 70h10v1h-10zM195 70h9v1h-9zM212 70h9v1h-9zM230 70h10v1h-10zM253 70h9v1h-9zM270 70h9v1h-9zM291 70h9v1h-9zM1 71h9v1h-9zM27 71h9v1h-9zM48 71h6v1h-6zM56 71h7v1h-7zM102 71h11v1h-11zM123 71h4v1h-4zM136 71h8v1h-8zM157 71h9v1h-9zM173 71h10v1h-10zM194 71h10v1h-10zM212 71h9v1h-9zM231 71h10v1h-10zM251 71h11v1h-11zM270 71h9v1h-9zM291 71h9v1h-9zM0 72h10v1h-10zM27 72h9v1h-9zM48 72h5v1h-5zM57 72h6v1h-6zM103 72h12v1h-12zM122 72h6v1h-6zM136 72h8v1h-8zM157 72h9v1h-9zM173 72h12v1h-12zM192 72h12v1h-12zM212 72h10v1h-10zM231 72h12v1h-12zM250 72h12v1h-12zM270 72h9v1h-9zM291 72h9v1h-9zM0 73h10v1h-10zM27 73h9v1h-9zM48 73h5v1h-5zM57 73h6v1h-6zM103 73h26v1h-26zM136 73h8v1h-8zM157 73h9v1h-9zM174 73h30v1h-30zM212 73h15v1h-15zM231 73h31v1h-31zM270 73h9v1h-9zM291 73h9v1h-9zM0 74h9v1h-9zM27 74h9v1h-9zM48 74h5v1h-5zM57 74h6v1h-6zM104 74h26v1h-26zM136 74h8v1h-8zM157 74h9v1h-9zM174 74h30v1h-30zM212 74h15v1h-15zM232 74h30v1h-30zM270 74h9v1h-9zM291 74h9v1h-9zM0 75h9v1h-9zM27 75h9v1h-9zM48 75h7v1h-7zM56 75h7v1h-7zM105 75h25v1h-25zM136 75h8v1h-8zM157 75h9v1h-9zM175 75h29v1h-29zM212 75h15v1h-15zM233 75h29v1h-29zM270 75h9v1h-9zM291 75h9v1h-9zM0 76h8v1h-8zM28 76h7v1h-7zM48 76h14v1h-14zM106 76h23v1h-23zM136 76h8v1h-8zM157 76h9v1h-9zM176 76h28v1h-28zM213 76h15v1h-15zM234 76h28v1h-28zM270 76h9v1h-9zM291 76h9v1h-9zM1 77h7v1h-7zM29 77h5v1h-5zM49 77h13v1h-13zM107 77h21v1h-21zM136 77h8v1h-8zM157 77h9v1h-9zM177 77h17v1h-17zM195 77h9v1h-9zM213 77h15v1h-15zM235 77h17v1h-17zM253 77h9v1h-9zM270 77h9v1h-9zM291 77h9v1h-9zM3 78h4v1h-4zM50 78h11v1h-11zM109 78h18v1h-18zM135 78h9v1h-9zM157 78h9v1h-9zM178 78h15v1h-15zM195 78h9v1h-9zM214 78h14v1h-14zM236 78h15v1h-15zM253 78h9v1h-9zM270 78h9v1h-9zM291 78h9v1h-9zM51 79h9v1h-9zM111 79h14v1h-14zM136 79h8v1h-8zM157 79h9v1h-9zM180 79h11v1h-11zM195 79h9v1h-9zM215 79h12v1h-12zM237 79h12v1h-12zM253 79h9v1h-9zM270 79h8v1h-8zM291 79h9v1h-9zM53 80h5v1h-5zM114 80h8v1h-8zM182 80h7v1h-7zM218 80h7v1h-7zM240 80h7v1h-7z"></path></svg>